<?xml version="1.0" encoding="UTF-8"?>
<svg id="_レイヤー_1" data-name="レイヤー 1" xmlns="http://www.w3.org/2000/svg" viewBox="0 0 400 400">
  <defs>
    <style>
      .cls-1 {
        fill: #fff;
        stroke: #bcada7;
        stroke-linecap: square;
        stroke-linejoin: round;
        stroke-width: 2px;
      }

      .cls-2 {
        fill: #c62828;
        stroke: #c62828;
        stroke-linecap: round;
        stroke-linejoin: bevel;
      }
    </style>
  </defs>
  <g id="_02" data-name="02">
    <path class="cls-1" d="m288.71,202.84c-1.27,2.55-5.79,1.87-5.79,1.87-2.19,1.74-5.01,3.11-8.24,3.82-3.3.73-6.51.66-9.27-.05-2.01,1.94-4.69,3.58-7.83,4.6-4.69,1.53-9.35,1.35-12.8-.15-2.62.98-5.73,1.41-9.02,1.08-4.3-.42-8.05-2.02-10.64-4.27-2.89,1.45-6.61,2.16-10.58,1.77-5.71-.56-10.47-3.21-12.79-6.67-3.29,2.06-8.1,2.85-13.14,1.8-4.83-1.01-8.78-3.48-11.03-6.5-2.76-.45-5.67-1.63-8.36-3.54-3.52-2.5-5.98-5.76-7.12-8.99-3.23-.18-6.8-1.41-10.06-3.72-3.47-2.47-5.92-5.67-7.07-8.86-2.76-1.27-5.46-3.46-7.62-6.43-2.54-3.49-3.84-7.37-3.88-10.79-3.01-1.2-6-3.5-8.35-6.74-5.01-6.88-5.51-14.84-.75-18.31"/>
    <path class="cls-1" d="m124.35,132.76s-3.01-6.76,9.99-5.76,45-14,73,1,48-4,70,45c0,0,17.73,19.68,11.36,29.84"/>
    <path class="cls-2" d="m354.84,173.18c2.71-43.89-41.49-87.1-107.87-97.51-66.39-10.41-125.72,16.38-132.53,59.83,0,0,158.07-55.3,189.92,117.98,0,0,4.87,11.47,12.63,0,0,0,24.32-36.95,11.58-96.83,0,0,6.37,5.1,20.39,29.3,0,0,2.55,3.82,3.82,0,0,0,1.61-5.15,2.08-12.77Z"/>
  </g>
  <g id="_01" data-name="01">
    <path class="cls-1" d="m219.32,270.85c-1.27,2.55-5.79,1.87-5.79,1.87-2.19,1.74-5.01,3.11-8.24,3.82-3.3.73-6.51.66-9.27-.05-2.01,1.94-4.69,3.58-7.83,4.6-4.69,1.53-9.35,1.35-12.8-.15-2.62.98-5.73,1.41-9.02,1.08-4.3-.42-8.05-2.02-10.64-4.27-2.89,1.45-6.61,2.16-10.58,1.77-5.71-.56-10.47-3.21-12.79-6.67-3.29,2.06-8.1,2.85-13.14,1.8-4.83-1.01-8.78-3.48-11.03-6.5-2.76-.45-5.67-1.63-8.36-3.54-3.52-2.5-5.98-5.76-7.12-8.99-3.23-.18-6.8-1.41-10.06-3.72-3.47-2.47-5.92-5.67-7.07-8.86-2.76-1.27-5.46-3.46-7.62-6.43-2.54-3.49-3.84-7.37-3.88-10.79-3.01-1.2-6-3.5-8.35-6.74-5.01-6.88-5.51-14.84-.75-18.31,0,0,.13-5.92,33.38-8.77,35-3,145,13,130.98,78.85"/>
    <path class="cls-2" d="m285.45,241.19c2.71-43.89-41.49-87.1-107.87-97.51-66.39-10.41-125.72,16.38-132.53,59.83,0,0,158.07-55.3,189.92,117.98,0,0,4.87,11.47,12.63,0,0,0,24.32-36.95,11.58-96.83,0,0,6.37,5.1,20.39,29.3,0,0,2.55,3.82,3.82,0,0,0,1.61-5.15,2.08-12.77Z"/>
  </g>
</svg>