<?xml version="1.0" encoding="UTF-8"?>
<svg id="_レイヤー_1" data-name="レイヤー 1" xmlns="http://www.w3.org/2000/svg" viewBox="0 0 1200 400">
  <defs>
    <style>
      .cls-1 {
        fill: #fff;
        stroke: #bcada7;
        stroke-linecap: square;
        stroke-linejoin: round;
        stroke-width: 2px;
      }

      .cls-2 {
        fill: #c62828;
        stroke: #c62828;
        stroke-linecap: round;
        stroke-linejoin: bevel;
      }
    </style>
  </defs>
  <g id="_02" data-name="02">
    <path class="cls-1" d="m318.36,202.84c-1.27,2.55-5.79,1.87-5.79,1.87-2.19,1.74-5.01,3.11-8.24,3.82-3.3.73-6.51.66-9.27-.05-2.01,1.94-4.69,3.58-7.83,4.6-4.69,1.53-9.35,1.35-12.8-.15-2.62.98-5.73,1.41-9.02,1.08-4.3-.42-8.05-2.02-10.64-4.27-2.89,1.45-6.61,2.16-10.58,1.77-5.71-.56-10.47-3.21-12.79-6.67-3.29,2.06-8.1,2.85-13.14,1.8-4.83-1.01-8.78-3.48-11.03-6.5-2.76-.45-5.67-1.63-8.36-3.54-3.52-2.5-5.98-5.76-7.12-8.99-3.23-.18-6.8-1.41-10.06-3.72-3.47-2.47-5.92-5.67-7.07-8.86-2.76-1.27-5.46-3.46-7.62-6.43-2.54-3.49-3.84-7.37-3.88-10.79-3.01-1.2-6-3.5-8.35-6.74-5.01-6.88-5.51-14.84-.75-18.31"/>
    <path class="cls-1" d="m154.01,132.76s-3.01-6.76,9.99-5.76,45-14,73,1,48-4,70,45c0,0,17.73,19.68,11.36,29.84"/>
    <path class="cls-2" d="m384.5,173.18c2.71-43.89-41.49-87.1-107.87-97.51-66.39-10.41-125.72,16.38-132.53,59.83,0,0,158.07-55.3,189.92,117.98,0,0,4.87,11.47,12.63,0,0,0,24.32-36.95,11.58-96.83,0,0,6.37,5.1,20.39,29.3,0,0,2.55,3.82,3.82,0,0,0,1.61-5.15,2.08-12.77Z"/>
  </g>
  <g id="_01" data-name="01">
    <path class="cls-1" d="m248.98,270.85c-1.27,2.55-5.79,1.87-5.79,1.87-2.19,1.74-5.01,3.11-8.24,3.82-3.3.73-6.51.66-9.27-.05-2.01,1.94-4.69,3.58-7.83,4.6-4.69,1.53-9.35,1.35-12.8-.15-2.62.98-5.73,1.41-9.02,1.08-4.3-.42-8.05-2.02-10.64-4.27-2.89,1.45-6.61,2.16-10.58,1.77-5.71-.56-10.47-3.21-12.79-6.67-3.29,2.06-8.1,2.85-13.14,1.8-4.83-1.01-8.78-3.48-11.03-6.5-2.76-.45-5.67-1.63-8.36-3.54-3.52-2.5-5.98-5.76-7.12-8.99-3.23-.18-6.8-1.41-10.06-3.72-3.47-2.47-5.92-5.67-7.07-8.86-2.76-1.27-5.46-3.46-7.62-6.43-2.54-3.49-3.84-7.37-3.88-10.79-3.01-1.2-6-3.5-8.35-6.74-5.01-6.88-5.51-14.84-.75-18.31,0,0,.13-5.92,33.38-8.77,35-3,145,13,130.98,78.85"/>
    <path class="cls-2" d="m315.11,241.19c2.71-43.89-41.49-87.1-107.87-97.51-66.39-10.41-125.72,16.38-132.53,59.83,0,0,158.07-55.3,189.92,117.98,0,0,4.87,11.47,12.63,0,0,0,24.32-36.95,11.58-96.83,0,0,6.37,5.1,20.39,29.3,0,0,2.55,3.82,3.82,0,0,0,1.61-5.15,2.08-12.77Z"/>
  </g>
  <g>
    <path class="cls-2" d="m483.42,123.31c5.4,0,9.12,3.72,9.12,9.12s-3.72,8.94-9.12,8.94-8.94-3.72-8.94-8.94,3.72-9.12,8.94-9.12Zm7.26,131.43c0,2.61-1.49,4.1-4.1,4.1h-6.14c-2.61,0-4.1-1.49-4.1-4.1v-95.5c0-2.61,1.49-3.91,4.1-3.91h6.14c2.61,0,4.1,1.3,4.1,3.91v95.5Z"/>
    <path class="cls-2" d="m577.8,150.48v81.91c0,17.69-6.33,27.37-28.67,27.37s-28.67-9.68-28.67-27.37v-81.91c0-17.68,6.33-27.36,28.67-27.36s28.67,9.68,28.67,27.36Zm-41.7,0v81.91c0,8.94,2.42,14.33,13.03,14.33s13.03-5.4,13.03-14.33v-81.91c0-8.94-2.42-14.33-13.03-14.33s-13.03,5.4-13.03,14.33Z"/>
    <path class="cls-2" d="m625.27,176.55l19.36,20.29c8.38,8.38,12.29,16.01,12.29,35.56,0,17.69-6.33,27.37-28.67,27.37s-28.48-9.68-28.48-27.37v-17.68c0-2.61,1.3-4.1,3.91-4.1h7.63c2.61,0,3.91,1.49,3.91,4.1v17.68c0,8.94,2.42,14.33,13.03,14.33s13.22-5.4,13.22-14.33c0-11.91-1.49-16.94-10.05-26.06l-19.36-20.29c-8.38-8.19-12.29-16.01-12.29-35.56,0-17.68,6.14-27.36,28.48-27.36s28.67,9.68,28.67,27.36v17.69c0,2.61-1.3,3.91-3.91,3.91h-7.63c-2.61,0-3.91-1.3-3.91-3.91v-17.69c0-8.94-2.61-14.33-13.22-14.33s-13.03,5.4-13.03,14.33c0,12.1,1.49,17.13,10.05,26.06Z"/>
    <path class="cls-2" d="m794.5,150.48v81.91c0,17.69-6.33,27.37-28.67,27.37s-28.67-9.68-28.67-27.37v-81.91c0-17.68,6.33-27.36,28.67-27.36s28.67,9.68,28.67,27.36Zm-41.7,0v81.91c0,8.94,2.42,14.33,13.03,14.33s13.03-5.4,13.03-14.33v-81.91c0-8.94-2.42-14.33-13.03-14.33s-13.03,5.4-13.03,14.33Z"/>
    <path class="cls-2" d="m847.18,259.76c-18.06,0-23.27-7.82-23.27-22.15v-11.91c0-2.61,1.3-4.1,3.91-4.1h6.33c2.61,0,3.91,1.49,3.91,4.1v11.73c0,7.82,2.79,10.42,9.12,10.42s8.94-2.61,8.94-10.42c0-11.54-1.49-12.47-8.19-19.17l-14.15-13.78c-6.7-6.52-9.87-12.1-9.87-27.92,0-14.33,5.21-22.15,23.27-22.15s23.27,7.82,23.27,22.15v11.91c0,2.61-1.49,3.91-4.1,3.91h-6.14c-2.61,0-4.1-1.3-4.1-3.91v-11.73c0-8-2.79-10.42-8.94-10.42s-9.12,2.42-9.12,10.42c0,11.54,1.49,12.29,8.19,19.17l14.15,13.78c6.7,6.52,10.05,12.1,10.05,27.92,0,14.33-5.4,22.15-23.27,22.15Z"/>
    <path class="cls-2" d="m895.95,159.23c0-2.61,1.49-3.91,4.1-3.91h6.14c2.61,0,4.1,1.3,4.1,3.91v77.63c0,8,2.05,10.42,8.19,10.42s9.87-3.16,9.87-10.98v-77.07c0-2.61,1.3-3.91,3.91-3.91h6.33c2.61,0,3.91,1.3,3.91,3.91v95.69c0,2.42-1.3,3.91-3.91,3.91h-6.33c-2.61,0-3.91-1.49-3.91-3.91v-2.42c-4.84,4.65-11.36,7.26-17.13,7.26-8.19,0-15.26-5.21-15.26-17.13v-83.4Z"/>
    <path class="cls-2" d="m991.45,259.76c-18.06,0-23.27-7.82-23.27-22.15v-11.91c0-2.61,1.3-4.1,3.91-4.1h6.33c2.61,0,3.91,1.49,3.91,4.1v11.73c0,7.82,2.79,10.42,9.12,10.42s8.94-2.61,8.94-10.42c0-11.54-1.49-12.47-8.19-19.17l-14.15-13.78c-6.7-6.52-9.87-12.1-9.87-27.92,0-14.33,5.21-22.15,23.27-22.15s23.27,7.82,23.27,22.15v11.91c0,2.61-1.49,3.91-4.1,3.91h-6.14c-2.61,0-4.1-1.3-4.1-3.91v-11.73c0-8-2.79-10.42-8.94-10.42s-9.12,2.42-9.12,10.42c0,11.54,1.49,12.29,8.19,19.17l14.15,13.78c6.7,6.52,10.05,12.1,10.05,27.92,0,14.33-5.4,22.15-23.27,22.15Z"/>
    <path class="cls-2" d="m1083.04,254.92c0,2.42-1.3,3.91-3.91,3.91h-6.33c-2.61,0-3.91-1.49-3.91-3.91v-77.81c0-7.82-2.23-10.42-8.38-10.42s-9.68,3.35-9.68,11.17v77.07c0,2.42-1.49,3.91-4.1,3.91h-6.14c-2.61,0-4.1-1.49-4.1-3.91V113.81c0-2.61,1.49-3.91,4.1-3.91h6.14c2.61,0,4.1,1.3,4.1,3.91v47.84c4.65-4.65,11.17-7.26,16.94-7.26,8.19,0,15.26,5.21,15.26,17.13v83.4Z"/>
    <path class="cls-2" d="m1116.18,123.31c5.4,0,9.12,3.72,9.12,9.12s-3.72,8.94-9.12,8.94-8.94-3.72-8.94-8.94,3.72-9.12,8.94-9.12Zm7.26,131.43c0,2.61-1.49,4.1-4.1,4.1h-6.14c-2.61,0-4.1-1.49-4.1-4.1v-95.5c0-2.61,1.49-3.91,4.1-3.91h6.14c2.61,0,4.1,1.3,4.1,3.91v95.5Z"/>
  </g>
</svg>